<?xml version="1.0" encoding="utf-8"?>
<svg viewBox="657.2872 273.3037 822.7819 1023.5349" width="82.27819" height="102.35349" xmlns="http://www.w3.org/2000/svg">
  <defs>
    <clipPath clipPathUnits="userSpaceOnUse" id="clipPath294">
      <path d="m 8272.9,4438.33 c -65.84,10.64 -373.07,25.94 -475.47,3.99 -102.43,-21.94 -212.16,51.23 0,109.72 212.12,58.52 512.08,0 512.08,0 138.99,-65.83 29.23,-124.33 -36.61,-113.71 z m 0,-200.84 c -87.79,-58.55 -146.29,0 -168.23,0 -21.95,0 -278,0 -299.95,58.55 -21.95,58.55 210.37,80.45 210.37,80.45 451.76,-7.34 345.59,-80.45 257.81,-139 z m 101.24,446.19 c -2.28,-2.23 -4.68,-4.41 -7.68,-6.34 -12.25,-7.93 -30.08,-13.71 -56.95,-15.56 0,0 -482.84,-29.33 -592.57,-58.55 -109.72,-29.23 -124.39,186.19 592.52,235.74 0,0 0.05,3.04 0,8.18 -0.08,6.91 -0.38,18.3 -1.2,32.88 -78.65,170.55 -205.65,314.09 -363.6,413.1 -147.91,92.71 -322.66,146.5 -510.09,146.5 -61.55,0 -121.69,-6.04 -180.02,-17.11 -352.32,-66.73 -636.59,-325.4 -739.88,-663.28 -10.97,-35.87 -19.67,-72.66 -26.41,-110.12 -10.03,-55.62 -15.51,-112.85 -15.51,-171.34 0,-116.17 20.57,-227.52 58.29,-330.6 7.97,-19.29 15.73,-38.41 23.14,-56.75 35.24,-80.03 80.97,-154.43 135.66,-221.25 176.38,-215.6 444.44,-353.27 744.73,-353.27 281.38,0 534.53,120.87 710.39,313.45 76.97,84.27 138.91,182.33 182.16,289.91 44.57,110.85 69.34,231.76 69.34,358.51 0,70.67 -7.88,139.51 -22.32,205.9 z" id="path292"/>
    </clipPath>
    <radialGradient cx="0" cy="0" r="1" gradientUnits="userSpaceOnUse" gradientTransform="matrix(961.859,0,0,-961.859,7215.16,4638.67)" spreadMethod="pad" id="radialGradient300">
      <stop style="stop-opacity:1;stop-color:#ffffff" offset="0" id="stop296"/>
      <stop style="stop-opacity:1;stop-color:#f36917" offset="1" id="stop298"/>
    </radialGradient>
  </defs>
  <g id="g8" transform="matrix(1.3333332538604736, 0, 0, -1.3333332538604736, -1.0658141036401503e-13, 1765.626735294263)">
    <g id="g10" transform="scale(0.1)">
      <path d="m 5940.41,7602.44 c -141.58,32.91 -377.1,261.88 -157.56,552.23 -31.03,-6.52 -63.1,-21.57 -95.84,-47.49 -263.34,-208.49 -74.71,-691.28 253.4,-504.74" style="fill:#00adef;fill-opacity:1;fill-rule:nonzero;stroke:none" id="path232"/>
      <path d="m 10555.2,4098.54 c 0,0 -111.8,-74.72 -147.3,-233.05 l -0.1,-0.34 c 14.1,-8.32 27.8,-17.4 40.6,-27.48 l -0.1,0.05 c 0,0 57.1,104.24 262.1,-188.72 37.4,7.54 64.2,25.24 64.2,25.24 0,0 -71.8,136.22 -121.6,203.98 -23.2,22.46 -37.5,37.42 -37.5,37.42 8.3,-1.33 21.9,-16.08 37.5,-37.42 70.7,-68.45 224.7,-207.19 313.9,-210.63 30.2,7.9 58.2,21.52 81.9,42.71 -60.1,22.57 -131.7,65.18 -177.2,145.43 0,0 120,-130.65 216.2,-95.81 3,5.44 6.1,10.8 8.7,16.72 58.5,131.66 -541.3,321.9 -541.3,321.9" style="fill:#00adef;fill-opacity:1;fill-rule:nonzero;stroke:none" id="path234"/>
      <path d="m 7254.55,5422.52 c -66.26,19.08 -395.96,108.11 -514.17,29.29 -131.67,-87.78 -296.26,131.67 -296.26,131.67 -21.95,-186.54 252.37,-296.27 197.51,-427.93 -54.87,-131.68 -65.84,-43.9 -208.49,115.21 -142.64,159.1 -98.75,389.52 -98.75,389.52 -21.08,35.15 -199.35,92.66 -325.06,129.58 45.09,-119.97 105.61,-295.2 105.61,-370.97 0,-120.69 65.84,-230.42 153.61,-296.27 71.12,-53.31 199.82,-279.45 246.12,-363.38 103.29,337.88 387.56,596.55 739.88,663.28" style="fill:#00adef;fill-opacity:1;fill-rule:nonzero;stroke:none" id="path236"/>
      <path d="m 10157.7,10459.9 v 0 c 39.8,-172.8 50.5,-372.3 31.8,-553.22 -43.9,-424.25 219.4,-234.11 219.4,-234.11 0,0 336.5,921.73 -395,1389.93 -20.93,13.4 -41.74,25.4 -62.58,36.8 -27.3,11.7 -56.58,21.2 -87.62,28.3 196.3,-93.2 328.3,-295.7 294,-667.7" style="fill:#80d6f7;fill-opacity:1;fill-rule:nonzero;stroke:none" id="path238"/>
      <path d="m 5818.68,6856.29 c -10.97,395.02 121.73,746.15 121.73,746.15 0,0 -264.37,-373.08 -253.4,-669.33 0,0 -620.68,-47.49 -584.63,-846.7 7.67,-12.51 15.59,-24 23.65,-34.71 338.74,-47.49 703.62,409.58 692.65,804.59" style="fill:#00adef;fill-opacity:1;fill-rule:nonzero;stroke:none" id="path240"/>
      <path d="m 10039.7,4321.66 c 26.5,-150.56 47.3,-252.41 47.3,-252.41 0,0 -73.1,-73.16 -175.54,-160.95 -102.44,-87.77 -131.67,-234.06 131.64,-73.12 71.1,43.47 134.5,63.95 191.3,68.97 -31.9,136.26 -85.9,302.69 -171.7,395.53 -6.8,7.42 -14.7,14.7 -23,21.98" style="fill:#00adef;fill-opacity:1;fill-rule:nonzero;stroke:none" id="path242"/>
      <path d="m 6619.68,3922.97 c -87.78,7.33 -219.46,351.12 -226.74,387.69 -7.33,36.56 -131.68,36.56 -102.44,-58.52 29.23,-95.06 87.78,-204.83 65.84,-263.34 -21.95,-58.5 -190.18,314.52 -162.45,180.62 27.69,-133.89 162.45,-180.62 60.05,-195.28 -102.4,-14.65 -215.81,281.65 -215.81,281.65 -2.74,0.35 -6.17,0.26 -9.25,0.38 l 27.8,-44.7 c -159.91,-27.81 -467.39,-197.08 -645.7,-301.23 169.82,-12 396.73,-5.58 396.73,-5.58 32.92,131.68 212.16,208.49 212.16,208.49 0,0 0,0 102.4,-146.33 102.39,-146.33 175.56,-43.9 175.56,-43.9 73.17,-58.54 190.17,29.28 190.17,29.28 96.96,-107.75 170,-96.44 201.84,-83.02 -54.69,66.82 -100.42,141.22 -135.66,221.25 37.21,-92.59 65.5,-167.46 65.5,-167.46" style="fill:#2e3192;fill-opacity:1;fill-rule:nonzero;stroke:none" id="path244"/>
      <path d="m 6193.89,4508.17 c 42.35,36.56 147.78,7.31 213.62,-95.12 31.21,-48.52 80.32,-160.91 123.53,-265.87 -37.72,103.08 -58.29,214.43 -58.29,330.6 0,58.49 5.48,115.72 15.51,171.34 -169,14.58 -294.37,-140.95 -294.37,-140.95" style="fill:#2e3192;fill-opacity:1;fill-rule:nonzero;stroke:none" id="path246"/>
      <path d="m 9088.52,10905.2 c -275.48,-211.8 -311.56,-841 -303.51,-1226.2 122.8,-877.43 325.45,-1921.58 325.45,-1921.58 0,0 -230.42,1940.78 -142.65,2697.88 23.41,201.9 119.34,295.8 246.89,325.9 181.52,167.6 455.79,146.8 623.63,120.3 159.41,-25.2 265.77,-209.2 319.37,-441.6 34.3,372 -97.7,574.5 -294,667.7 -211.89,48.3 -503.78,-13.8 -775.18,-222.4" style="fill:#2e3192;fill-opacity:1;fill-rule:nonzero;stroke:none" id="path248"/>
      <path d="m 8934.9,7757.42 c 0,0 -113.37,1457.99 -133.48,1633.55 -5.26,45.86 -13.58,151.81 -16.41,288.03 -8.05,385.2 28.03,1014.4 303.51,1226.2 271.4,208.6 563.29,270.7 775.18,222.4 -123.34,58.5 -271.73,73.9 -421.06,60.1 -350.27,-71 -630.28,-415.7 -734.39,-854 -36.39,-153.1 -51.35,-317.5 -40.33,-485.57 58.5,-892.42 0,-2090.71 0,-2090.71 0,0 201.14,34.29 266.98,0" style="fill:#80d6f7;fill-opacity:1;fill-rule:nonzero;stroke:none" id="path250"/>
      <path d="m 10555.2,4098.54 c 0,0 -380.4,14.61 -139,409.63 241.4,395.01 32.9,405.97 197.5,811.96 164.6,406 87.8,636.42 0,801 -87.8,164.59 -285.3,-65.83 -340.1,54.86 -54.9,120.71 -296.31,241.41 -427.97,329.19 -131.67,87.77 -219.46,351.11 -219.46,351.11 l -54.86,-362.09 c -65.83,120.71 -362.1,186.54 -427.93,-208.48 -48.95,-293.73 59.79,-1072.48 118.81,-1452.67 2.39,18 4.45,36.4 5.57,55.46 14.62,248.69 204.79,907.09 277.96,936.37 73.16,29.27 409.63,-307.24 409.63,-307.24 -71.88,-215.65 21.94,-841.59 84.35,-1195.98 8.3,-7.28 16.2,-14.56 23,-21.98 85.8,-92.84 139.8,-259.27 171.7,-395.53 67.1,5.87 124.6,-10.46 173.4,-39 l 0.1,0.34 c 35.5,158.33 147.3,233.05 147.3,233.05" style="fill:#2e3192;fill-opacity:1;fill-rule:nonzero;stroke:none" id="path252"/>
      <path d="m 10448.3,3837.72 0.1,-0.05 c 43.5,-34.45 78.9,-77.7 106.8,-119.53 48.2,-72.37 109.6,-78.35 155.2,-69.14 -205,292.96 -262.1,188.72 -262.1,188.72" style="fill:#2e3192;fill-opacity:1;fill-rule:nonzero;stroke:none" id="path254"/>
      <path d="m 10615.5,3915.64 c 0,0 14.3,-14.96 37.5,-37.42 -15.6,21.34 -29.2,36.09 -37.5,37.42" style="fill:#231f20;fill-opacity:1;fill-rule:nonzero;stroke:none" id="path256"/>
      <path d="m 10774.6,3674.24 c 61.7,-15.43 131.5,-22.5 192.3,-6.65 -89.2,3.44 -243.2,142.18 -313.9,210.63 49.8,-67.76 121.6,-203.98 121.6,-203.98" style="fill:#2e3192;fill-opacity:1;fill-rule:nonzero;stroke:none" id="path258"/>
      <path d="m 10871.6,3855.73 c 45.5,-80.25 117.1,-122.86 177.2,-145.43 14.9,13.36 28.1,29.78 39,49.62 -96.2,-34.84 -216.2,95.81 -216.2,95.81" style="fill:#2e3192;fill-opacity:1;fill-rule:nonzero;stroke:none" id="path260"/>
      <path d="m 5313.94,8403.44 c 0,0 415.59,124.72 608.42,85.16 -303.34,75.01 -531.61,189.15 -531.61,189.15 -24.95,10.71 -50.67,-0.64 -76.55,-28.59 -16.5,-80.28 -24.61,-172.69 -0.26,-245.72" style="fill:#00adef;fill-opacity:1;fill-rule:nonzero;stroke:none" id="path262"/>
      <path d="m 8309.46,4914.14 c 0,0 -2.1,4.68 -4.8,12.01 0.13,-1.41 0.21,-2.61 0.34,-4.03 1.46,-2.75 3.01,-5.22 4.46,-7.98" style="fill:#231f20;fill-opacity:1;fill-rule:nonzero;stroke:none" id="path264"/>
      <path d="m 5687.01,6933.11 c -10.97,296.25 253.4,669.33 253.4,669.33 -328.11,-186.54 -516.74,296.25 -253.4,504.74 32.74,25.92 64.81,40.97 95.84,47.49 218.67,45.77 386.95,-332.79 386.95,-332.79 53.93,169.48 5.11,463.26 -28.8,623.3 -75.57,11.23 -149.12,26.23 -218.64,43.42 -192.83,39.56 -608.42,-85.16 -608.42,-85.16 -24.35,73.03 -16.24,165.44 0.26,245.72 -159.24,-171.96 -326.14,-994.87 -373.33,-1485.63 -40.98,-425.97 34.29,-870.09 161.51,-1077.12 -36.05,799.21 584.63,846.7 584.63,846.7" style="fill:#80d6f7;fill-opacity:1;fill-rule:nonzero;stroke:none" id="path266"/>
      <path d="m 6071.05,4453.3 c 0,0 -164.59,460.84 -21.94,702.25 142.64,241.39 -208.48,460.85 -164.6,669.33 l -24.94,-23.36 c -16.85,-33.4 -31.81,-75.82 -40.89,-130.26 -32.92,-197.51 219.45,-1415.47 219.45,-1415.47 0,0 -21.94,120.7 32.92,197.51" style="fill:#b2e6fa;fill-opacity:1;fill-rule:nonzero;stroke:none" id="path268"/>
      <path d="m 5874.22,5827.75 c -4.96,-8.02 -9.85,-16.76 -14.65,-26.23 l 24.94,23.36 c 0,0 -3.64,1.02 -10.29,2.87" style="fill:#231f20;fill-opacity:1;fill-rule:nonzero;stroke:none" id="path270"/>
      <path d="m 6185.31,7577.37 c -1.62,1.4 -3.33,2.86 -5.31,4.53 -0.17,-1.45 -0.42,-3 -0.64,-4.49 1.97,0 3.95,0 5.95,-0.04" style="fill:#2e3192;fill-opacity:1;fill-rule:nonzero;stroke:none" id="path272"/>
      <path d="m 6028.88,4256.17 c -96.58,4.24 -366.56,-88.84 -451.6,-110.1 -87.78,-21.96 -438.9,-186.55 -296.26,-219.46 32.92,-7.58 78.95,-12.77 129.96,-16.37 178.31,104.15 485.79,273.42 645.7,301.23 l -27.8,44.7" style="fill:#00adef;fill-opacity:1;fill-rule:nonzero;stroke:none" id="path274"/>
      <path d="m 6400.22,7455.89 c 8.93,-11.83 13.81,-25.25 15.61,-39.22 3.26,8.02 -1.63,20.62 -15.61,39.22" style="fill:#00adef;fill-opacity:1;fill-rule:nonzero;stroke:none" id="path276"/>
      <path d="m 10774.7,5693.2 c 0,204.84 0,424.24 -87.8,482.79 -87.8,58.55 -599.9,746.14 -599.9,746.14 14.6,160.9 -87.75,541.35 -321.83,555.91 -234.07,14.67 -307.23,161 -395.01,424.34 -87.78,263.35 -292.62,1433.73 -336.51,2253.02 -17.4,324.7 61.89,515.8 181.05,625.8 -127.55,-30.1 -223.48,-124 -246.89,-325.9 -87.77,-757.1 142.65,-2697.88 142.65,-2697.88 0,0 -202.65,1044.15 -325.45,1921.58 2.83,-136.22 11.15,-242.17 16.41,-288.03 20.11,-175.56 133.48,-1633.55 133.48,-1633.55 -65.84,34.29 -266.98,0 -266.98,0 -570.58,-101.07 -1009.49,613.1 -1082.65,793.72 -73.17,180.66 -526.69,-78.19 -1067.98,-122.07 -125.72,-10.2 -253.71,-2.15 -376.29,16.11 33.91,-160.04 82.73,-453.82 28.8,-623.3 -25.63,-131.66 -94.94,-90.6 -110.11,-206.84 -1.84,-14.11 -2.36,-31.72 -1.24,-50.58 1.88,-32.88 8.96,-69.44 23.57,-97.38 -58.55,-47.49 -69.52,-131.68 0,-179.17 0.94,-4.79 -0.81,-10.41 -3.9,-16.49 -17.15,-33.96 -79.85,-84.75 3.9,-118.86 65.83,-493.78 175.56,-373.07 175.56,-373.07 -24.43,73.3 -66.05,252.28 -63.73,384.04 22.11,6.47 41.79,13.15 60.27,19.89 136.51,49.72 173.28,103.68 95.05,120.19 -31.06,6.51 -79.76,7.28 -147.86,-0.7 -106.09,36.61 -7.46,131.25 -7.46,131.25 132.36,-24.51 212.38,-40.85 221.98,-17.49 -1.8,13.97 -6.68,27.39 -15.61,39.22 -34.45,45.82 -151.29,35.62 -233.34,48.95 -48.47,7.84 -84.86,23.91 -84.86,64.67 v 0.39 c 0.26,85.17 68.19,37.16 97.98,12 1.98,-1.67 3.69,-3.13 5.31,-4.53 5.24,-4.59 8.58,-7.86 8.58,-7.86 h 102.82 70.6 v 130.01 c 54.86,645.71 757.11,572.24 921.7,473.49 164.58,-98.75 32.92,-285.28 -186.53,-415.59 -219.46,-130.3 -384.05,0 -384.05,0 -241.39,-360.72 427.93,-429.3 724.2,-361.49 296.25,67.8 318.2,-495.74 351.12,-693.25 32.92,-197.5 21.94,-318.2 221.34,-296.25 199.39,21.93 371.17,169.46 371.17,169.46 0,0 -21.94,-147.53 120.7,-290.17 142.65,-142.64 186.54,-757.1 186.37,-965.59 -0.13,-208.48 -153.44,-197.51 -307.07,-219.44 -67.62,-9.69 -90.56,-46.99 -95.05,-85.74 -4.12,-34.97 6.72,-70.81 13.45,-88.8 2.7,-7.33 4.8,-12.01 4.8,-12.01 -1.45,2.76 -3,5.23 -4.46,7.98 1.63,-16.21 2.62,-30.13 3.26,-42.09 10.89,-23.61 21.05,-47.58 30.01,-72.19 29.91,-35.52 67.93,-92.74 35.87,-124.16 14.44,-66.39 22.32,-135.23 22.32,-205.9 0,-126.75 -24.77,-247.66 -69.34,-358.51 33.43,9.9 55.76,25.08 59.14,48.74 10.98,76.81 131.68,131.67 252.38,153.61 120.7,21.95 241.4,142.65 197.5,241.41 -43.89,98.75 -351.12,351.11 -351.12,351.11 0,0 -65.84,142.65 98.75,0 164.59,-142.63 502,-460.33 547.26,-396.9 55.82,65.85 112.13,174.33 131.16,315.81 -59.02,380.19 -167.76,1158.94 -118.81,1452.67 65.83,395.02 362.1,329.19 427.93,208.48 l 54.86,362.09 c 0,0 87.79,-263.34 219.46,-351.11 131.66,-87.78 373.07,-208.48 427.97,-329.19 54.8,-120.69 252.3,109.73 340.1,-54.86 87.8,-164.58 164.6,-395 0,-801 -164.6,-405.99 43.9,-416.95 -197.5,-811.96 -241.4,-395.02 139,-409.63 139,-409.63 v 394.96 c 395,980.2 219.5,994.87 219.5,1199.7" style="fill:#00adef;fill-opacity:1;fill-rule:nonzero;stroke:none" id="path278"/>
      <path d="m 8583.77,4914.14 c -164.59,142.65 -98.75,0 -98.75,0 0,0 307.23,-252.36 351.12,-351.11 43.9,-98.76 -76.8,-219.46 -197.5,-241.41 -120.7,-21.94 -241.4,-76.8 -252.38,-153.61 -3.38,-23.66 -25.71,-38.84 -59.14,-48.74 -43.25,-107.58 -105.19,-205.64 -182.16,-289.91 286.18,-210.63 471.22,-86.93 566.84,49.68 102.4,146.28 336.51,570.57 336.51,570.57 23.49,9.39 52.98,32.53 82.72,67.63 -45.26,-63.43 -382.67,254.27 -547.26,396.9" style="fill:#2e3192;fill-opacity:1;fill-rule:nonzero;stroke:none" id="path280"/>
      <path d="m 6253.94,3974.14 c 102.4,14.66 -32.36,61.39 -60.05,195.28 -27.73,133.9 140.5,-239.12 162.45,-180.62 21.94,58.51 -36.61,168.28 -65.84,263.34 -29.24,95.08 95.11,95.08 102.44,58.52 7.28,-36.57 138.96,-380.36 226.74,-387.69 0,0 -28.29,74.87 -65.5,167.46 -8.22,18.64 -16.11,37.5 -23.14,56.75 -43.21,104.96 -92.32,217.35 -123.53,265.87 -65.84,102.43 -171.27,131.68 -213.62,95.12 0,0 125.37,155.53 294.37,140.95 6.74,37.46 15.44,74.25 26.41,110.12 -46.3,83.93 -175,310.07 -246.12,363.38 -87.77,65.85 -153.61,175.58 -153.61,296.27 0,75.77 -60.52,251 -105.61,370.97 -70.59,20.7 -124.82,35.02 -124.82,35.02 -43.88,-208.48 307.24,-427.94 164.6,-669.33 -142.65,-241.41 21.94,-702.25 21.94,-702.25 -54.86,-76.81 -32.92,-197.51 -32.92,-197.51 0,0 113.41,-296.3 215.81,-281.65" style="fill:#80d6f7;fill-opacity:1;fill-rule:nonzero;stroke:none" id="path282"/>
      <path d="m 6539.18,6797.75 c -144.82,-86.46 -193.82,354.81 -193.82,354.81 0,0 38.15,6.77 74.49,24.94 21.01,10.46 41.45,24.69 53.5,43.77 0,0 4.37,-6.04 11.14,-16.25 44.28,-66.17 200.55,-320.17 54.69,-407.27 z m 1967.78,-512.03 c -142.64,142.64 -120.7,290.17 -120.7,290.17 0,0 -171.78,-147.53 -371.17,-169.46 -199.4,-21.95 -188.42,98.75 -221.34,296.25 -32.92,197.51 -54.87,761.05 -351.12,693.25 -296.27,-67.81 -965.59,0.77 -724.2,361.49 0,0 164.59,-130.3 384.05,0 219.45,130.31 351.11,316.84 186.53,415.59 -164.59,98.75 -866.84,172.22 -921.7,-473.49 v -130.01 h -70.6 -102.82 c 0,0 -3.34,3.27 -8.58,7.86 -2,0.04 -3.98,0.04 -5.95,0.04 0.22,1.49 0.47,3.04 0.64,4.49 -29.79,25.16 -97.72,73.17 -97.98,-12 v -0.39 c 0,-40.76 36.39,-56.83 84.86,-64.67 82.05,-13.33 198.89,-3.13 233.34,-48.95 13.98,-18.6 18.87,-31.2 15.61,-39.22 -9.6,-23.36 -89.62,-7.02 -221.98,17.49 0,0 -98.63,-94.64 7.46,-131.25 68.1,7.98 116.8,7.21 147.86,0.7 78.23,-16.51 41.46,-70.47 -95.05,-120.19 -18.48,-6.74 -38.16,-13.42 -60.27,-19.89 -2.32,-131.76 39.3,-310.74 63.73,-384.04 0,0 -109.73,-120.71 -175.56,373.07 -83.75,34.11 -21.05,84.9 -3.9,118.86 3.09,6.08 4.84,11.7 3.9,16.49 -69.52,47.49 -58.55,131.68 0,179.17 -14.61,27.94 -21.69,64.5 -23.57,97.38 -1.12,18.86 -0.6,36.47 1.24,50.58 15.17,116.24 84.48,75.18 110.11,206.84 0,0 -168.28,378.56 -386.95,332.79 -219.54,-290.35 15.98,-519.32 157.56,-552.23 0,0 -132.7,-351.13 -121.73,-746.15 10.97,-395.01 -353.91,-852.08 -692.65,-804.59 37.16,-49.51 78.01,-79.6 121.3,-84.19 188.76,-19.92 560.63,-121.42 626.89,-139.76 6.65,-1.85 10.29,-2.87 10.29,-2.87 0,0 54.23,-14.32 124.82,-35.02 125.71,-36.92 303.98,-94.43 325.06,-129.58 0,0 -43.89,-230.42 98.75,-389.52 142.65,-159.11 153.62,-246.89 208.49,-115.21 54.86,131.66 -219.46,241.39 -197.51,427.93 0,0 164.59,-219.45 296.26,-131.67 118.21,78.82 447.91,-10.21 514.17,-29.29 58.33,11.07 118.47,17.11 180.02,17.11 187.43,0 362.18,-53.79 510.09,-146.5 157.95,-99.01 284.95,-242.55 363.6,-413.1 -0.64,11.96 -1.63,25.88 -3.26,42.09 -0.13,1.42 -0.21,2.62 -0.34,4.03 -6.73,17.99 -17.57,53.83 -13.45,88.8 4.49,38.75 27.43,76.05 95.05,85.74 153.63,21.93 306.94,10.96 307.07,219.44 0.17,208.49 -43.72,822.95 -186.37,965.59" style="fill:#2e3192;fill-opacity:1;fill-rule:nonzero;stroke:none" id="path284"/>
      <path d="m 6539.18,6797.75 c 145.86,87.1 -10.41,341.1 -54.69,407.27 -6.77,10.21 -11.14,16.25 -11.14,16.25 -12.05,-19.08 -32.49,-33.31 -53.5,-43.77 -36.34,-18.17 -74.49,-24.94 -74.49,-24.94 0,0 49,-441.27 193.82,-354.81" style="fill:#00adef;fill-opacity:1;fill-rule:nonzero;stroke:none" id="path286"/>
      <g id="g288">
        <g id="g290" clip-path="url(#clipPath294)">
          <path d="m 8272.9,4438.33 c -65.84,10.64 -373.07,25.94 -475.47,3.99 -102.43,-21.94 -212.16,51.23 0,109.72 212.12,58.52 512.08,0 512.08,0 138.99,-65.83 29.23,-124.33 -36.61,-113.71 z m 0,-200.84 c -87.79,-58.55 -146.29,0 -168.23,0 -21.95,0 -278,0 -299.95,58.55 -21.95,58.55 210.37,80.45 210.37,80.45 451.76,-7.34 345.59,-80.45 257.81,-139 z m 101.24,446.19 c -2.28,-2.23 -4.68,-4.41 -7.68,-6.34 -12.25,-7.93 -30.08,-13.71 -56.95,-15.56 0,0 -482.84,-29.33 -592.57,-58.55 -109.72,-29.23 -124.39,186.19 592.52,235.74 0,0 0.05,3.04 0,8.18 -0.08,6.91 -0.38,18.3 -1.2,32.88 -78.65,170.55 -205.65,314.09 -363.6,413.1 -147.91,92.71 -322.66,146.5 -510.09,146.5 -61.55,0 -121.69,-6.04 -180.02,-17.11 -352.32,-66.73 -636.59,-325.4 -739.88,-663.28 -10.97,-35.87 -19.67,-72.66 -26.41,-110.12 -10.03,-55.62 -15.51,-112.85 -15.51,-171.34 0,-116.17 20.57,-227.52 58.29,-330.6 7.97,-19.29 15.73,-38.41 23.14,-56.75 35.24,-80.03 80.97,-154.43 135.66,-221.25 176.38,-215.6 444.44,-353.27 744.73,-353.27 281.38,0 534.53,120.87 710.39,313.45 76.97,84.27 138.91,182.33 182.16,289.91 44.57,110.85 69.34,231.76 69.34,358.51 0,70.67 -7.88,139.51 -22.32,205.9" style="fill:url(#radialGradient300);fill-opacity:1;fill-rule:nonzero;stroke:none" id="path302"/>
        </g>
      </g>
      <path d="m 8317,4831.42 c 5.36,-5.48 13.03,-13.71 21.27,-23.58 -8.96,24.61 -19.12,48.58 -30.01,72.19 0.82,-14.58 1.12,-25.97 1.2,-32.88 2.41,-5.31 5.27,-10.32 7.54,-15.73" style="fill:#00adef;fill-opacity:1;fill-rule:nonzero;stroke:none" id="path304"/>
      <path d="m 8317,4831.42 c -2.27,5.41 -5.13,10.42 -7.54,15.73 0.05,-5.14 0,-8.18 0,-8.18 0,0 2.91,-2.8 7.54,-7.55" style="fill:#00adef;fill-opacity:1;fill-rule:nonzero;stroke:none" id="path306"/>
      <path d="m 6531.04,4147.18 c 7.03,-19.25 14.92,-38.11 23.14,-56.75 -7.41,18.34 -15.17,37.46 -23.14,56.75" style="fill:#00adef;fill-opacity:1;fill-rule:nonzero;stroke:none" id="path308"/>
      <path d="m 7662.76,4620.07 c 0,0 -51.86,-63.51 127.34,-42 179.22,21.51 580.61,-36.69 548.17,-88.2 -32.41,-51.54 -660.77,-18.73 -660.77,-18.73 0,0 -33.68,-120.24 76.04,-94.65 109.73,25.59 587.12,40.68 584.73,0 -2.36,-40.68 -69.01,-65.83 -69.01,-65.83 l -464.54,-14.62 c 0,0 -73.16,-80.5 65.84,-102.44 138.99,-21.96 397.45,-123.06 456.56,-74.33 59.14,48.74 198.14,481.26 198.14,481.26 0,0 -72.94,179.38 -212.03,158.71 -139.08,-20.65 -643.7,-118.43 -650.47,-139.17" style="fill:#00adef;fill-opacity:1;fill-rule:nonzero;stroke:none" id="path310"/>
      <path d="m 8338.27,4807.84 c -8.24,9.87 -15.91,18.1 -21.27,23.58 -4.63,4.75 -7.54,7.55 -7.54,7.55 -716.91,-49.55 -702.24,-264.97 -592.52,-235.74 109.73,29.22 592.57,58.55 592.57,58.55 26.87,1.85 44.7,7.63 56.95,15.56 3,1.93 5.4,4.11 7.68,6.34 32.06,31.42 -5.96,88.64 -35.87,124.16" style="fill:#2e3192;fill-opacity:1;fill-rule:nonzero;stroke:none" id="path312"/>
      <path d="m 8309.51,4552.04 c 0,0 -299.96,58.52 -512.08,0 -212.16,-58.49 -102.43,-131.66 0,-109.72 102.4,21.95 409.63,6.65 475.47,-3.99 65.84,-10.62 175.6,47.88 36.61,113.71" style="fill:#2e3192;fill-opacity:1;fill-rule:nonzero;stroke:none" id="path314"/>
      <path d="m 8015.09,4376.49 c 0,0 -232.32,-21.9 -210.37,-80.45 21.95,-58.55 278,-58.55 299.95,-58.55 21.94,0 80.44,-58.55 168.23,0 87.78,58.55 193.95,131.66 -257.81,139" style="fill:#2e3192;fill-opacity:1;fill-rule:nonzero;stroke:none" id="path316"/>
    </g>
  </g>
</svg>